<svg width="130" height="60" viewBox="0 0 130 60" fill="none" xmlns="http://www.w3.org/2000/svg">
<g clip-path="url(#clip0_2685_147)">
<path fill-rule="evenodd" clip-rule="evenodd" d="M81.5644 10.0985L80.5155 13.6083C80.4261 13.9675 80.4779 14.3474 80.6602 14.6696C80.8425 14.9917 81.1415 15.2317 81.4955 15.34C81.8495 15.4483 82.2316 15.4167 82.563 15.2517C82.8944 15.0867 83.1498 14.8009 83.2767 14.4531L84.0309 11.9866H94.7585L100.429 19.5901L97.7409 28.8096H96.1533C95.7699 28.8096 95.4021 28.9619 95.1309 29.233C94.8598 29.5042 94.7075 29.8719 94.7075 30.2554C94.7075 30.6389 94.8598 31.0066 95.1309 31.2778C95.4021 31.5489 95.7699 31.7013 96.1533 31.7013H98.8239C99.1392 31.6943 99.4437 31.5849 99.6913 31.3895C99.9388 31.1941 100.116 30.9234 100.196 30.6183L103.388 19.6695C103.45 19.4554 103.461 19.2301 103.422 19.011C103.382 18.7918 103.293 18.5845 103.161 18.4051L96.6239 9.63927C96.4913 9.46386 96.32 9.32145 96.1233 9.2231C95.9266 9.12476 95.7098 9.07314 95.4899 9.07227H82.9422C82.6335 9.07224 82.333 9.17142 82.0849 9.35518C81.8368 9.53894 81.6543 9.79754 81.5644 10.0929" fill="#FEFEFE"/>
<path fill-rule="evenodd" clip-rule="evenodd" d="M80.6097 28.7861H57.5044C57.121 28.7861 56.7532 28.9385 56.4821 29.2096C56.2109 29.4808 56.0586 29.8485 56.0586 30.232C56.0586 30.6154 56.2109 30.9832 56.4821 31.2544C56.7532 31.5255 57.121 31.6778 57.5044 31.6778H80.6097C80.9932 31.6778 81.3609 31.5255 81.6321 31.2544C81.9032 30.9832 82.0556 30.6154 82.0556 30.232C82.0556 29.8485 81.9032 29.4808 81.6321 29.2096C81.3609 28.9385 80.9932 28.7861 80.6097 28.7861Z" fill="#FEFEFE"/>
<path fill-rule="evenodd" clip-rule="evenodd" d="M83.6193 30.2322C82.8369 32.7894 84.2771 34.8589 86.8286 34.8589C89.3801 34.8589 92.0903 32.7894 92.8728 30.2322C93.6553 27.675 92.2151 25.6055 89.6579 25.6055C87.1007 25.6055 84.3961 27.675 83.6193 30.2322ZM90.0661 30.2322C89.8959 30.7373 89.5789 31.1802 89.1558 31.5044C88.7326 31.8286 88.2225 32.0193 87.6904 32.0523C87.4688 32.0637 87.248 32.0185 87.0487 31.9208C86.8495 31.8231 86.6785 31.6762 86.5519 31.494C86.4253 31.3117 86.3473 31.1002 86.3253 30.8794C86.3032 30.6586 86.3379 30.4358 86.426 30.2322C86.5959 29.7273 86.9129 29.2848 87.3362 28.9614C87.7596 28.6381 88.2699 28.4488 88.8017 28.4178C89.0231 28.4052 89.244 28.4495 89.4434 28.5465C89.6428 28.6434 89.814 28.7898 89.9408 28.9718C90.0676 29.1537 90.1457 29.365 90.1676 29.5857C90.1895 29.8063 90.1546 30.0289 90.0661 30.2322Z" fill="#FEFEFE"/>
<path fill-rule="evenodd" clip-rule="evenodd" d="M44.793 30.2322C44.0162 32.7894 45.4507 34.8589 48.0079 34.8589C50.5651 34.8589 53.2697 32.7894 54.0465 30.2322C54.8232 27.675 53.3944 25.6055 50.8372 25.6055C48.2801 25.6055 45.5528 27.675 44.793 30.2322ZM51.2398 30.2322C51.0709 30.7381 50.7543 31.1819 50.3308 31.5063C49.9074 31.8307 49.3965 32.0208 48.8641 32.0523C48.6424 32.0643 48.4214 32.0194 48.2221 31.9217C48.0228 31.824 47.8519 31.6769 47.7256 31.4943C47.5994 31.3118 47.522 31.0999 47.5009 30.8789C47.4799 30.658 47.5158 30.4353 47.6053 30.2322C47.7745 29.7269 48.0913 29.2839 48.5148 28.9605C48.9383 28.6371 49.449 28.448 49.9811 28.4178C50.2006 28.4087 50.4188 28.4556 50.6152 28.5543C50.8115 28.6529 50.9795 28.8 51.1032 28.9816C51.2269 29.1632 51.3023 29.3733 51.3222 29.5921C51.3421 29.8109 51.306 30.0312 51.2171 30.2322H51.2398Z" fill="#FEFEFE"/>
<path fill-rule="evenodd" clip-rule="evenodd" d="M46.8071 2.88603H83.7529L83.0271 5.26744C82.9377 5.62668 82.9895 6.00654 83.1719 6.32872C83.3542 6.65091 83.6532 6.89088 84.0072 6.99919C84.3612 7.1075 84.7432 7.0759 85.0746 6.91089C85.406 6.74588 85.6615 6.46004 85.7884 6.11227L87.0868 1.86543C87.1545 1.64684 87.1698 1.41539 87.1314 1.18981C87.0929 0.964228 87.0019 0.750867 86.8657 0.567001C86.7325 0.392237 86.561 0.250279 86.3645 0.152C86.1679 0.0537215 85.9515 0.00172785 85.7317 8.64716e-07H45.7412C45.4317 -0.000337486 45.1303 0.098626 44.8812 0.28234C44.6322 0.466054 44.4487 0.724824 44.3577 1.0206L41.3242 10.9488H44.3407L46.8071 2.88603Z" fill="#FEFEFE"/>
<path fill-rule="evenodd" clip-rule="evenodd" d="M42.8827 30.2326C42.8827 29.8492 42.7304 29.4814 42.4592 29.2102C42.1881 28.9391 41.8203 28.7868 41.4368 28.7868H38.891L43.461 13.835H40.4389L39.6338 16.4715H34.0715C33.8744 16.4592 33.6768 16.4873 33.491 16.5542C33.3052 16.6212 33.1351 16.7254 32.9912 16.8606C32.8472 16.9959 32.7325 17.1591 32.654 17.3404C32.5756 17.5216 32.5352 17.717 32.5352 17.9145C32.5352 18.112 32.5756 18.3074 32.654 18.4887C32.7325 18.6699 32.8472 18.8332 32.9912 18.9684C33.1351 19.1036 33.3052 19.2079 33.491 19.2748C33.6768 19.3418 33.8744 19.3699 34.0715 19.3575H38.7493L35.557 29.813C35.49 30.0286 35.4746 30.2568 35.512 30.4794C35.5495 30.702 35.6387 30.9127 35.7725 31.0945C35.9074 31.2674 36.0793 31.408 36.2754 31.5061C36.4716 31.6042 36.6872 31.6573 36.9065 31.6615H41.4085C41.792 31.6615 42.1597 31.5091 42.4309 31.238C42.702 30.9668 42.8543 30.5991 42.8543 30.2156" fill="#FEFEFE"/>
<path fill-rule="evenodd" clip-rule="evenodd" d="M10.8807 43.3639C10.4094 43.0281 9.87825 42.7856 9.31582 42.6495C8.62216 42.4918 7.91217 42.4176 7.20091 42.4283H4.81383C4.46145 42.4137 4.1087 42.4461 3.76488 42.5247C3.50284 42.5988 3.26067 42.7305 3.05613 42.9103C2.85182 43.0971 2.68948 43.3251 2.57985 43.5793C2.44329 43.897 2.33882 44.2275 2.268 44.5659L0.11907 53.8647C0.0425892 54.1612 0.00260303 54.4658 4.22147e-10 54.7719C-6.07605e-06 54.9761 0.0655874 55.1749 0.18711 55.3389C0.333957 55.5068 0.534212 55.619 0.754111 55.6565C1.0638 55.7341 1.38173 55.7741 1.701 55.7755H4.4226C5.37018 55.7836 6.31141 55.6203 7.20091 55.2936C8.05431 54.9835 8.84402 54.5205 9.53128 53.9271C10.2309 53.3133 10.823 52.587 11.2833 51.7782C11.781 50.8912 12.1459 49.936 12.3663 48.9432C12.6416 47.8681 12.6416 46.741 12.3663 45.6659C12.1414 44.7484 11.6165 43.9322 10.8751 43.3469L10.8807 43.3639ZM22.9692 46.9417C22.6437 46.5099 22.2199 46.162 21.7331 45.9267C21.166 45.6539 20.5422 45.5198 19.9131 45.5355C19.2164 45.5337 18.5264 45.6705 17.8832 45.9381C17.2251 46.2134 16.6176 46.5966 16.0858 47.0721C15.5299 47.561 15.0553 48.1351 14.6796 48.7731C14.2834 49.4259 13.9943 50.138 13.8235 50.8823C13.6552 51.5668 13.6224 52.2775 13.7271 52.9745C13.8183 53.5736 14.0495 54.1428 14.4018 54.6359C14.7509 55.1039 15.2107 55.478 15.7399 55.7245C16.3322 55.9944 16.9773 56.128 17.628 56.1157C18.2326 56.119 18.8351 56.0428 19.4198 55.8889C19.9434 55.761 20.4497 55.5706 20.928 55.3219C21.337 55.0841 21.7062 54.7837 22.0223 54.4317C22.2765 54.1949 22.4608 53.8929 22.5553 53.5586C22.5981 53.4201 22.6091 53.2737 22.5875 53.1304C22.5659 52.9871 22.5122 52.8505 22.4305 52.7307C22.3371 52.6196 22.2182 52.5327 22.0839 52.4775C21.9496 52.4222 21.804 52.4001 21.6594 52.4132C21.4619 52.4249 21.269 52.477 21.0924 52.5663L20.344 52.8952C20.0513 53.0204 19.7523 53.1302 19.4481 53.224C19.1131 53.323 18.7655 53.3726 18.4162 53.3714C17.8986 53.4071 17.3872 53.2427 16.9873 52.9122C16.8193 52.7442 16.6961 52.5369 16.6287 52.3092C16.5614 52.0814 16.5521 51.8404 16.6018 51.6081H21.8125C22.0288 51.6093 22.2449 51.5942 22.4589 51.5627C22.6334 51.5342 22.8008 51.4726 22.9522 51.3813C23.0978 51.2915 23.2186 51.1668 23.3037 51.0184C23.4065 50.826 23.481 50.6197 23.5249 50.406C23.6761 49.7882 23.705 49.1468 23.6099 48.5179C23.5202 47.9565 23.3029 47.423 22.9749 46.9587L22.9692 46.9417ZM20.8373 49.6576H17.01C17.21 49.1421 17.5497 48.6925 17.9909 48.3592C18.386 48.0551 18.8702 47.8897 19.3687 47.8885C19.5824 47.8826 19.7947 47.9237 19.9907 48.0089C20.1866 48.0942 20.3615 48.2215 20.5027 48.3818C20.6569 48.5555 20.768 48.763 20.8271 48.9876C20.8862 49.2122 20.8916 49.4475 20.8429 49.6746L20.8373 49.6576ZM29.3139 41.4474C28.35 41.4474 27.698 42.1732 27.3691 43.6077L25.0274 53.7457C24.691 55.1858 25.0085 55.9059 25.98 55.9059C26.213 55.9176 26.4457 55.8756 26.66 55.7832C26.8743 55.6908 27.0645 55.5504 27.216 55.373C27.5822 54.8962 27.8273 54.3379 27.9304 53.7457L30.2722 43.6077C30.5935 42.1713 30.274 41.4512 29.3139 41.4474ZM34.3489 45.6546C33.3812 45.6546 32.7329 46.369 32.4041 47.7978L31.0319 53.7457C30.6993 55.1858 31.0168 55.9059 31.9845 55.9059C32.2138 55.9141 32.442 55.8704 32.6521 55.7781C32.8622 55.6858 33.0487 55.5473 33.1979 55.373C33.564 54.8962 33.8092 54.3379 33.9123 53.7457L35.2901 47.7978C35.619 46.369 35.3015 45.6546 34.3489 45.6546ZM35.3185 41.4474C34.8388 41.4578 34.3784 41.6387 34.02 41.9577C33.6348 42.2638 33.3649 42.6916 33.2546 43.1711C33.1955 43.3726 33.1826 43.5848 33.217 43.792C33.2513 43.9991 33.332 44.1959 33.453 44.3675C33.5752 44.5327 33.7367 44.6649 33.9228 44.752C34.1089 44.8391 34.3138 44.8784 34.519 44.8664C34.7519 44.8654 34.9826 44.8212 35.1994 44.736C35.4235 44.6499 35.6308 44.5252 35.8118 44.3675C35.9985 44.2054 36.1575 44.0139 36.2824 43.8005C36.4181 43.5994 36.5143 43.3742 36.5659 43.1371C36.6227 42.9388 36.6355 42.7304 36.6031 42.5266C36.5708 42.3229 36.4942 42.1287 36.3788 41.9577C36.2576 41.792 36.0975 41.6587 35.9126 41.5697C35.7276 41.4807 35.5235 41.4387 35.3185 41.4474ZM45.1106 45.6546C44.4472 45.6546 43.9029 46.0741 43.4606 46.9133L40.6709 52.2431L40.257 47.1004C40.2537 46.7152 40.1438 46.3384 39.9395 46.0118C39.841 45.8923 39.7157 45.7978 39.5739 45.7357C39.4321 45.6737 39.2776 45.6459 39.123 45.6546C38.7204 45.6587 38.3332 45.81 38.0344 46.0798C37.7098 46.3444 37.4824 46.7094 37.388 47.1174C37.3393 47.3855 37.3393 47.6602 37.388 47.9282L38.3916 54.4771C38.4326 54.8794 38.5644 55.2672 38.7772 55.6111C38.8995 55.7534 39.0552 55.8631 39.2304 55.9304C39.4055 55.9977 39.5946 56.0204 39.7808 55.9967C40.1908 56.0147 40.5936 55.8838 40.9148 55.6281C41.2571 55.3182 41.5463 54.9543 41.7709 54.5508L45.7059 48.0927C45.9044 47.7933 46.0537 47.464 46.1482 47.1174C46.2035 46.9397 46.2204 46.7523 46.198 46.5676C46.1755 46.3829 46.1141 46.205 46.0178 46.0458C45.9131 45.9079 45.7746 45.7994 45.6156 45.7308C45.4567 45.6623 45.2827 45.636 45.1106 45.6546ZM55.6284 46.9587C55.3003 46.5207 54.8727 46.167 54.381 45.9267C53.8156 45.6547 53.1938 45.5207 52.5666 45.5355C51.8682 45.5337 51.1763 45.6705 50.5311 45.9381C49.8737 46.2147 49.2664 46.5978 48.7337 47.0721C48.1794 47.5625 47.7049 48.1364 47.3275 48.7731C46.9445 49.4016 46.6632 50.0866 46.494 50.8029C46.3212 51.4866 46.2865 52.1979 46.392 52.8952C46.4841 53.4931 46.7131 54.0616 47.061 54.5565C47.4114 55.0232 47.8709 55.397 48.3992 55.6451C48.9932 55.9154 49.6404 56.0491 50.2929 56.0363C50.8957 56.0402 51.4963 55.9639 52.079 55.8095C52.6029 55.6825 53.1094 55.4921 53.5872 55.2425C53.9867 55.0279 54.3518 54.7546 54.6702 54.4317C54.9244 54.1949 55.1087 53.8929 55.2032 53.5586C55.2468 53.4205 55.2587 53.2744 55.2381 53.1311C55.2175 52.9877 55.1648 52.8509 55.0841 52.7307C54.9897 52.6207 54.8707 52.5346 54.7367 52.4794C54.6026 52.4242 54.4574 52.4015 54.313 52.4132C54.1059 52.421 53.9028 52.4732 53.7176 52.5663L52.9692 52.8952C52.6785 53.0205 52.3814 53.1303 52.079 53.224C51.7421 53.3233 51.3926 53.373 51.0414 53.3714C50.5238 53.4071 50.0124 53.2427 49.6125 52.9122C49.4471 52.7425 49.3255 52.5351 49.2583 52.3079C49.1911 52.0806 49.1804 51.8404 49.227 51.6081H54.432C54.6483 51.6091 54.8644 51.594 55.0784 51.5627C55.2511 51.5342 55.4167 51.4726 55.5661 51.3813C55.7116 51.2915 55.8325 51.1668 55.9176 51.0184C56.0184 50.8257 56.091 50.6194 56.133 50.406C56.286 49.7886 56.3168 49.1472 56.2238 48.5179C56.146 47.9598 55.9424 47.4266 55.6284 46.9587ZM53.4908 49.6746H49.6749C49.871 49.1584 50.2091 48.7083 50.6502 48.3762C51.0464 48.0744 51.5299 47.9092 52.028 47.9056C52.2416 47.8996 52.4539 47.9407 52.6499 48.0259C52.8459 48.1112 53.0207 48.2385 53.162 48.3988C53.3116 48.5717 53.4191 48.7768 53.4762 48.9981C53.5333 49.2195 53.5383 49.451 53.4908 49.6746ZM65.3978 47.0607C65.4463 46.885 65.4537 46.7005 65.4193 46.5216C65.3848 46.3426 65.3096 46.174 65.1994 46.0288C65.0885 45.8882 64.946 45.7759 64.7834 45.701C64.6208 45.6261 64.4427 45.5907 64.2638 45.5979C63.4359 45.6546 62.6565 46.0091 62.0695 46.5958C62.0236 46.3295 61.8842 46.0884 61.6763 45.9159C61.4684 45.7433 61.2057 45.6506 60.9355 45.6546C59.9716 45.6546 59.3196 46.369 58.9907 47.7978L57.6186 53.7457C57.2822 55.1858 57.5997 55.9059 58.5712 55.9059C59.5407 55.9059 60.1871 55.1858 60.5216 53.7457L61.2304 50.6669C61.2871 50.4174 61.3495 50.2019 61.4062 50.0205C61.4611 49.8544 61.5373 49.6962 61.633 49.5499C61.7311 49.4167 61.8498 49.3 61.9845 49.204C62.1617 49.083 62.3519 48.9822 62.5515 48.9035C62.8747 48.7674 63.1979 48.6483 63.5154 48.5463C63.8089 48.4536 64.0966 48.3438 64.3772 48.2174C64.6238 48.1091 64.85 47.9595 65.0463 47.7751C65.2295 47.5763 65.3498 47.3277 65.3922 47.0607H65.3978ZM73.9482 45.6546C73.6565 45.6497 73.372 45.7458 73.1431 45.9267C72.8517 46.1846 72.6029 46.487 72.406 46.8226L69.5369 51.5344L68.9303 47.0607C68.8932 46.6902 68.7855 46.3303 68.6127 46.0004C68.5221 45.8701 68.3977 45.7669 68.2529 45.7019C68.108 45.637 67.9482 45.6128 67.7906 45.6319C67.3849 45.6379 66.9948 45.7888 66.6906 46.0571C66.3626 46.3197 66.1329 46.6853 66.0386 47.0947C66.007 47.2288 65.988 47.3654 65.9818 47.503C65.9619 47.6421 65.9619 47.7834 65.9818 47.9226L67.2973 54.891L65.4886 57.5332C65.2709 57.8399 65.1114 58.1839 65.0179 58.5482C64.9613 58.7212 64.9441 58.9047 64.9676 59.0852C64.9912 59.2658 65.0549 59.4387 65.154 59.5914C65.2724 59.7278 65.4216 59.8339 65.5893 59.901C65.7569 59.9681 65.9382 59.9941 66.1179 59.977C66.4257 59.9825 66.7232 59.8664 66.9457 59.6538C67.2204 59.391 67.4622 59.0959 67.6658 58.775L74.5436 48.0757C74.7555 47.7568 74.9162 47.4067 75.0198 47.038C75.0764 46.8663 75.0926 46.6838 75.067 46.5048C75.0414 46.3258 74.9748 46.1551 74.8724 46.0061C74.7543 45.8807 74.6092 45.7839 74.4481 45.723C74.2869 45.6621 74.1141 45.6387 73.9425 45.6546H73.9482ZM92.4891 43.8458C92.7046 42.8971 92.1092 42.4246 90.7031 42.4283H85.5264C84.1202 42.4283 83.3037 42.8989 83.0882 43.8458C82.8728 44.7927 83.4681 45.2407 84.8743 45.2407H85.98L84.0068 53.7797C83.6723 55.2199 84.0068 55.9456 84.9934 55.9456C85.9799 55.9456 86.649 55.2199 86.9836 53.7797L88.951 45.2407H90.051C91.461 45.2407 92.2718 44.7757 92.4835 43.8458H92.4891ZM97.0762 45.5979C96.2482 45.6546 95.4688 46.0091 94.8819 46.5958C94.836 46.3295 94.6965 46.0884 94.4886 45.9159C94.2807 45.7433 94.018 45.6506 93.7479 45.6546C92.7802 45.6546 92.1319 46.369 91.8031 47.7978L90.4252 53.7457C90.0964 55.1858 90.4139 55.9059 91.3778 55.9059C92.3474 55.9059 92.9938 55.1858 93.3283 53.7457L94.0427 50.6669C94.0899 50.4485 94.1486 50.2327 94.2185 50.0205C94.271 49.8535 94.3474 49.695 94.4453 49.5499C94.5398 49.4155 94.6568 49.2985 94.7911 49.204C94.9691 49.0842 95.1591 48.9835 95.3581 48.9035C95.6813 48.7674 96.0045 48.6483 96.3221 48.5463C96.6174 48.4537 96.9071 48.3438 97.1896 48.2174C97.4353 48.1077 97.6613 47.9582 97.8586 47.7751C98.0421 47.5765 98.1624 47.3278 98.2045 47.0607C98.2538 46.8855 98.262 46.7012 98.2286 46.5222C98.1952 46.3433 98.1209 46.1744 98.0117 46.0288C97.9003 45.8874 97.7568 45.7746 97.5931 45.6997C97.4295 45.6247 97.2503 45.5898 97.0705 45.5979H97.0762ZM107.809 45.6546C107.488 45.6744 107.177 45.7701 106.9 45.9337C106.623 46.0973 106.389 46.3242 106.216 46.5958C106.002 46.2449 105.695 45.9604 105.328 45.7742C104.962 45.588 104.551 45.5073 104.141 45.5412C103.511 45.5442 102.889 45.6794 102.315 45.9381C101.693 46.209 101.119 46.5785 100.614 47.0324C100.084 47.5171 99.6274 48.0768 99.2591 48.6937C98.8698 49.3399 98.5865 50.0444 98.42 50.7802C98.2448 51.4727 98.1968 52.1912 98.2782 52.9008C98.344 53.4875 98.5376 54.0526 98.8452 54.5565C99.1239 55.0045 99.5148 55.372 99.9792 55.6224C100.471 55.8769 101.018 56.0073 101.572 56.0023C102.073 56.0016 102.569 55.9009 103.031 55.7062C103.492 55.5115 103.91 55.2266 104.26 54.8683C104.286 55.1511 104.416 55.4139 104.626 55.605C104.836 55.7961 105.11 55.9014 105.394 55.9003C106.352 55.9003 106.993 55.1802 107.328 53.74L108.7 47.7922C108.87 47.2687 108.882 46.7064 108.734 46.1762C108.65 46.0049 108.517 45.8632 108.35 45.77C108.184 45.6767 107.993 45.6365 107.804 45.6546H107.809ZM105.162 50.7576C105.031 51.4286 104.708 52.0472 104.232 52.538C104.041 52.7421 103.811 52.906 103.556 53.02C103.301 53.1339 103.026 53.1956 102.746 53.2013C102.507 53.2137 102.269 53.1593 102.058 53.0442C101.848 52.929 101.674 52.7577 101.555 52.5493C101.289 51.9891 101.246 51.3481 101.436 50.7576C101.564 50.0918 101.895 49.4818 102.383 49.0112C102.775 48.6152 103.306 48.3874 103.863 48.3762C104.098 48.365 104.331 48.4189 104.537 48.532C104.744 48.645 104.914 48.8128 105.031 49.0169C105.295 49.5534 105.34 50.1716 105.156 50.7406L105.162 50.7576ZM117.573 45.6149C117.06 45.6062 116.548 45.6828 116.059 45.8417C115.587 46.0084 115.155 46.2709 114.789 46.6128C114.743 46.3416 114.599 46.0966 114.385 45.9234C114.171 45.7502 113.902 45.6607 113.627 45.6716C112.663 45.6716 112.011 46.386 111.682 47.8148L110.31 53.7627C109.974 55.2029 110.291 55.9229 111.263 55.9229C112.232 55.9229 112.878 55.2029 113.213 53.7627L113.99 50.3607C114.103 49.7429 114.359 49.1602 114.738 48.6597C114.901 48.473 115.104 48.3252 115.332 48.2271C115.559 48.129 115.806 48.0831 116.054 48.0927C116.621 48.0927 117.006 48.2798 117.148 48.6597C117.287 49.2328 117.265 49.8331 117.086 50.3947L116.314 53.7343C115.98 55.1745 116.314 55.8946 117.267 55.8946C118.22 55.8946 118.883 55.1745 119.218 53.7343L120.204 49.5045C120.499 48.2155 120.42 47.2422 119.966 46.5844C119.501 45.9267 118.707 45.5979 117.568 45.5979L117.573 45.6149ZM129.883 46.8112C129.756 46.5453 129.56 46.3182 129.316 46.1535C129.025 45.94 128.699 45.7806 128.352 45.6829C127.917 45.5566 127.466 45.4954 127.014 45.5015C126.495 45.4986 125.979 45.5849 125.489 45.7566C125.023 45.9175 124.585 46.1489 124.19 46.4427C123.81 46.7258 123.479 47.0685 123.209 47.4576C122.943 47.8299 122.751 48.2494 122.642 48.6937C122.553 49.0301 122.533 49.3814 122.586 49.7256C122.642 50.0114 122.762 50.2808 122.937 50.5138C123.134 50.7693 123.376 50.9865 123.651 51.1545C123.99 51.3635 124.34 51.5528 124.7 51.7215C125.177 51.9369 125.528 52.1127 125.761 52.2488C125.866 52.2951 125.951 52.378 126 52.4823C126.049 52.5865 126.059 52.705 126.027 52.8158C125.98 52.993 125.866 53.1453 125.71 53.241C125.523 53.3624 125.303 53.4237 125.08 53.4168C124.86 53.4184 124.642 53.374 124.44 53.2864C124.233 53.1988 124.032 53.0984 123.839 52.9859C123.645 52.8733 123.444 52.773 123.238 52.6854C123.035 52.5999 122.817 52.5556 122.597 52.555C122.268 52.5653 121.957 52.7037 121.729 52.9405C121.474 53.1923 121.299 53.5138 121.225 53.8647C121.152 54.1489 121.172 54.4488 121.281 54.7209C121.403 54.9994 121.599 55.2389 121.848 55.4126C122.159 55.627 122.504 55.7862 122.869 55.8833C123.883 56.1437 124.95 56.1143 125.948 55.7982C126.451 55.6332 126.926 55.3902 127.354 55.0781C127.759 54.7811 128.111 54.419 128.397 54.0065C128.669 53.6063 128.861 53.1579 128.964 52.6854C129.054 52.4035 129.082 52.1055 129.046 51.8119C129.01 51.5182 128.91 51.2359 128.754 50.9844C128.355 50.4595 127.828 50.0457 127.224 49.7823C126.946 49.6463 126.702 49.5328 126.475 49.4421C126.281 49.368 126.091 49.2808 125.908 49.1813C125.775 49.1177 125.659 49.0246 125.568 48.9092C125.532 48.8601 125.508 48.8031 125.498 48.743C125.488 48.6829 125.493 48.6213 125.511 48.5633C125.528 48.4898 125.559 48.4203 125.603 48.359C125.647 48.2976 125.702 48.2457 125.766 48.2061C125.919 48.1001 126.102 48.0464 126.288 48.053C126.483 48.0539 126.675 48.0924 126.855 48.1664C127.042 48.2401 127.224 48.3251 127.422 48.4102C127.62 48.4952 127.785 48.5803 127.955 48.654C128.118 48.726 128.293 48.7646 128.471 48.7674C128.814 48.7627 129.143 48.6361 129.401 48.4102C129.683 48.1891 129.883 47.8796 129.968 47.5313C130.021 47.2824 129.989 47.0228 129.877 46.7942L129.883 46.8112ZM9.13438 48.9318C8.50501 51.5967 7.01947 52.9575 4.66074 52.9575H3.29994L5.103 45.2407H6.40711C8.79607 45.2407 9.70516 46.471 9.13438 48.9318Z" fill="#FEFEFE"/>
<path fill-rule="evenodd" clip-rule="evenodd" d="M64.6399 13.8346L57.5977 18.0417C57.3257 18.2039 57.1145 18.451 56.9966 18.7449C56.8786 19.0388 56.8604 19.3633 56.9448 19.6686C57.0292 19.9738 57.2114 20.243 57.4636 20.4346C57.7157 20.6262 58.0238 20.7297 58.3405 20.7293H95.4961C95.8795 20.7293 96.2473 20.577 96.5184 20.3058C96.7896 20.0347 96.9419 19.6669 96.9419 19.2834C96.9419 18.9 96.7896 18.5322 96.5184 18.2611C96.2473 17.9899 95.8795 17.8376 95.4961 17.8376H63.5739L70.6217 13.6078C70.8953 13.4471 71.1081 13.2006 71.2272 12.9065C71.3463 12.6125 71.3649 12.2873 71.2802 11.9816C71.1956 11.6758 71.0123 11.4066 70.7589 11.2157C70.5055 11.0248 70.1962 10.9229 69.879 10.9258H27.0761C26.2766 10.9258 24.9102 11.5722 24.9102 12.3717C24.9102 13.1712 26.2766 13.8119 27.0761 13.8119H64.6399V13.8346Z" fill="#FFD200"/>
</g>
<defs>
<clipPath id="clip0_2685_147">
<rect width="129.985" height="60" fill="white"/>
</clipPath>
</defs>
</svg>
